<mxfile host="app.diagrams.net" modified="2021-03-04T14:53:13.515Z" agent="5.0 (X11; Linux x86_64) AppleWebKit/537.36 (KHTML, like Gecko) Chrome/87.0.4280.66 Safari/537.36" etag="aIfJ_eED1OkLDe1ZNbN_" version="14.4.4" type="github">
  <diagram id="chHk8BN3ge6NkC3Ys8KO" name="Page-1">
    <mxGraphModel dx="1185" dy="671" grid="1" gridSize="10" guides="1" tooltips="1" connect="1" arrows="1" fold="1" page="1" pageScale="1" pageWidth="827" pageHeight="1169" math="0" shadow="0">
      <root>
        <mxCell id="0" />
        <mxCell id="1" parent="0" />
        <mxCell id="Eb0gkb911b8Whc8BE0Bj-5" style="edgeStyle=orthogonalEdgeStyle;rounded=0;orthogonalLoop=1;jettySize=auto;html=1;entryX=1;entryY=0.5;entryDx=0;entryDy=0;exitX=1;exitY=0.5;exitDx=0;exitDy=0;" edge="1" parent="1" source="Eb0gkb911b8Whc8BE0Bj-1" target="Eb0gkb911b8Whc8BE0Bj-2">
          <mxGeometry relative="1" as="geometry">
            <mxPoint x="540" y="289" as="sourcePoint" />
            <Array as="points">
              <mxPoint x="479" y="329" />
              <mxPoint x="680" y="329" />
              <mxPoint x="680" y="80" />
            </Array>
          </mxGeometry>
        </mxCell>
        <mxCell id="Eb0gkb911b8Whc8BE0Bj-9" value="Download Image" style="edgeLabel;html=1;align=center;verticalAlign=middle;resizable=0;points=[];" vertex="1" connectable="0" parent="Eb0gkb911b8Whc8BE0Bj-5">
          <mxGeometry x="0.4582" relative="1" as="geometry">
            <mxPoint as="offset" />
          </mxGeometry>
        </mxCell>
        <mxCell id="Eb0gkb911b8Whc8BE0Bj-1" value="&lt;b style=&quot;font-size: 25px&quot;&gt;&lt;font color=&quot;#cc0000&quot;&gt;&lt;font style=&quot;font-size: 25px&quot;&gt;Vi&lt;/font&gt;s&lt;/font&gt;ion&lt;/b&gt;" style="ellipse;whiteSpace=wrap;html=1;aspect=fixed;" vertex="1" parent="1">
          <mxGeometry x="349" y="260" width="130" height="130" as="geometry" />
        </mxCell>
        <mxCell id="Eb0gkb911b8Whc8BE0Bj-6" style="edgeStyle=orthogonalEdgeStyle;rounded=0;orthogonalLoop=1;jettySize=auto;html=1;exitX=0;exitY=0.5;exitDx=0;exitDy=0;entryX=0.5;entryY=0;entryDx=0;entryDy=0;" edge="1" parent="1" source="Eb0gkb911b8Whc8BE0Bj-2" target="Eb0gkb911b8Whc8BE0Bj-1">
          <mxGeometry relative="1" as="geometry" />
        </mxCell>
        <mxCell id="Eb0gkb911b8Whc8BE0Bj-7" value="Upload Image" style="edgeLabel;html=1;align=center;verticalAlign=middle;resizable=0;points=[];" vertex="1" connectable="0" parent="Eb0gkb911b8Whc8BE0Bj-6">
          <mxGeometry x="0.337" y="1" relative="1" as="geometry">
            <mxPoint as="offset" />
          </mxGeometry>
        </mxCell>
        <mxCell id="Eb0gkb911b8Whc8BE0Bj-2" value="&lt;b&gt;User Interface&lt;/b&gt;" style="rounded=0;whiteSpace=wrap;html=1;fillColor=#dae8fc;strokeColor=#6c8ebf;" vertex="1" parent="1">
          <mxGeometry x="479" y="50" width="160" height="60" as="geometry" />
        </mxCell>
      </root>
    </mxGraphModel>
  </diagram>
</mxfile>
